<?xml version="1.0" standalone="no"?>
<!DOCTYPE svg PUBLIC "-//W3C//DTD SVG 1.0//EN" "http://www.w3.org/TR/2001/REC-SVG-20010904/DTD/svg10.dtd">
<svg xmlns="http://www.w3.org/2000/svg" xmlns:xlink="http://www.w3.org/1999/xlink" id="body_1" width="35" height="35">

<g transform="matrix(0.92105263 0 0 0.92105263 0 0)">
	<g transform="matrix(0.97435904 0 0 0.97435904 0 0)">
	</g>
    <path transform="matrix(0.97435904 0 0 0.97435904 0 0)"  d="M33.94922 29.910156C 33.94922 32.140625 32.140625 33.94922 29.910156 33.94922L29.910156 33.94922L8.890625 33.94922C 6.660156 33.94922 4.851562 32.140625 4.851562 29.910156L4.851562 29.910156L4.851562 8.890625C 4.851562 6.660156 6.660156 4.851562 8.890625 4.851562L8.890625 4.851562L29.910156 4.851562C 32.140625 4.851562 33.94922 6.660156 33.94922 8.890625L33.94922 8.890625L33.94922 29.910156z" stroke="none" fill="#0288D1" fill-rule="nonzero" />
	<g transform="matrix(0.97435904 0 0 0.97435904 0 0)">
	</g>
    <path transform="matrix(0.97435904 0 0 0.97435904 0 0)"  d="M9.699219 15.359375L13.742188 15.359375L13.742188 29.101562L9.699219 29.101562L9.699219 15.359375zM11.710938 13.742188L11.6875 13.742188C 10.480469 13.742188 9.699219 12.84375 9.699219 11.722656C 9.699219 10.574219 10.503906 9.699219 11.734375 9.699219C 12.960938 9.699219 13.71875 10.574219 13.742188 11.722656C 13.742188 12.839844 12.960938 13.742188 11.710938 13.742188zM29.101562 29.101562L25.058594 29.101562L25.058594 21.742188C 25.058594 19.96875 24.066406 18.753906 22.476562 18.753906C 21.265625 18.753906 20.609375 19.574219 20.289062 20.363281C 20.175781 20.648438 20.207031 21.429688 20.207031 21.824219L20.207031 21.824219L20.207031 29.101562L16.167969 29.101562L16.167969 15.359375L20.207031 15.359375L20.207031 17.472656C 20.792969 16.570312 21.707031 15.359375 24.039062 15.359375C 26.933594 15.359375 29.101562 17.175781 29.101562 21.238281z" stroke="none" fill="#FFFFFF" fill-rule="nonzero" />
</g>
</svg>