<svg width="38" height="27" viewBox="0 0 38 27" fill="none" xmlns="http://www.w3.org/2000/svg">
<path d="M31.8435 11.8794C32.0819 11.2617 32.2157 10.5863 32.2157 9.88207C32.2157 6.82255 29.7153 4.3403 26.6333 4.3403C25.4878 4.3403 24.4179 4.68666 23.534 5.27547C21.9233 2.50458 18.917 0.645782 15.4687 0.645782C10.3283 0.645782 6.16484 4.77902 6.16484 9.88207C6.16484 10.0379 6.17065 10.1938 6.17647 10.3497C2.92012 11.4869 0.58252 14.5695 0.58252 18.1947C0.58252 22.784 4.33314 26.5074 8.956 26.5074H30.3549C34.466 26.5074 37.798 23.1996 37.798 19.1183C37.798 15.5451 35.2394 12.5606 31.8435 11.8794Z" fill="white"/>
</svg>
