<svg width="38" height="37" viewBox="0 0 38 37" fill="none" xmlns="http://www.w3.org/2000/svg">
<path d="M36.0971 18.0239L29.0756 15.0887V6.29112C29.0756 5.07487 28.3996 3.98835 27.3747 3.55861L20.1061 0.517986C19.5173 0.266628 18.8632 0.266628 18.2671 0.517986L10.9985 3.55861C9.97361 3.98835 9.29763 5.07487 9.29763 6.29112V15.0887L2.27611 18.0239C1.2585 18.4536 0.58252 19.5401 0.58252 20.7564V29.6837C0.58252 30.7864 1.14221 31.7999 2.02898 32.2945L9.29763 36.3487C10.0318 36.7622 10.904 36.7622 11.6381 36.3487L19.1903 32.1324L26.7424 36.3487C27.4765 36.7622 28.3487 36.7622 29.0829 36.3487L36.3515 32.2945C37.2383 31.7999 37.798 30.7864 37.798 29.6837V20.7564C37.798 19.5401 37.122 18.4536 36.0971 18.0239ZM26.6043 15.1535L20.4259 17.7401V12.2102L26.6043 9.21012V15.1535ZM11.7762 6.1776L19.1903 3.08022L26.6043 6.1776V6.22625L19.1903 9.5831L11.7762 6.22625V6.1776ZM17.8819 29.781L11.7035 33.227V26.8133L17.8819 23.6673V29.781ZM17.8819 20.6996L10.4679 24.0565L3.05386 20.6996V20.651L10.4679 17.5536L17.8819 20.651V20.6996ZM35.3266 29.781L29.1483 33.227V26.8133L35.3266 23.6673V29.781ZM35.3266 20.6996L27.9126 24.0565L20.4986 20.6996V20.651L27.9126 17.5536L35.3266 20.651V20.6996Z" fill="white"/>
</svg>
