<svg width="39" height="38" viewBox="0 0 39 38" fill="none" xmlns="http://www.w3.org/2000/svg">
<path d="M26.0634 11.7342C24.9752 5.03392 22.4086 0.329468 19.4218 0.329468C16.4349 0.329468 13.8684 5.03392 12.7802 11.7342H26.0634ZM12.2173 18.9372C12.2173 20.6029 12.3074 22.2011 12.465 23.7392H26.3711C26.5287 22.2011 26.6187 20.6029 26.6187 18.9372C26.6187 17.2715 26.5287 15.6733 26.3711 14.1352H12.465C12.3074 15.6733 12.2173 17.2715 12.2173 18.9372ZM36.5849 11.7342C34.4386 6.63959 30.0934 2.70045 24.7276 1.10979C26.5587 3.64585 27.8195 7.46493 28.4799 11.7342H36.5849ZM14.1085 1.10979C8.7502 2.70045 4.39752 6.63959 2.2587 11.7342H10.3637C11.0166 7.46493 12.2774 3.64585 14.1085 1.10979ZM37.3879 14.1352H28.7801C28.9377 15.7109 29.0277 17.324 29.0277 18.9372C29.0277 20.5504 28.9377 22.1635 28.7801 23.7392H37.3804C37.7931 22.2011 38.0258 20.6029 38.0258 18.9372C38.0258 17.2715 37.7931 15.6733 37.3879 14.1352ZM9.81586 18.9372C9.81586 17.324 9.90592 15.7109 10.0635 14.1352H1.4557C1.05045 15.6733 0.810303 17.2715 0.810303 18.9372C0.810303 20.6029 1.05045 22.2011 1.4557 23.7392H10.056C9.90592 22.1635 9.81586 20.5504 9.81586 18.9372ZM12.7802 26.1402C13.8684 32.8405 16.4349 37.5449 19.4218 37.5449C22.4086 37.5449 24.9752 32.8405 26.0634 26.1402H12.7802ZM24.7351 36.7646C30.0934 35.174 34.4461 31.2348 36.5924 26.1402H28.4874C27.827 30.4095 26.5662 34.2286 24.7351 36.7646ZM2.2587 26.1402C4.40502 31.2348 8.7502 35.174 14.116 36.7646C12.2849 34.2286 11.0241 30.4095 10.3637 26.1402H2.2587Z" fill="white"/>
</svg>
