<svg width="37" height="35" viewBox="0 0 37 35" fill="none" xmlns="http://www.w3.org/2000/svg">
<path d="M13.7015 0.215637C11.8156 0.215637 10.2514 1.59928 9.80362 3.46888C9.75317 3.46888 9.71532 3.45538 9.66487 3.45538C7.43843 3.45538 5.62827 5.39247 5.62827 7.77503C5.62827 8.099 5.66611 8.41623 5.73549 8.71995C3.89379 9.52989 2.60082 11.4602 2.60082 13.7146C2.60082 14.565 2.80265 15.3547 3.12432 16.0701C1.61059 17.0015 0.58252 18.7294 0.58252 20.734C0.58252 22.9816 1.86919 24.9119 3.69827 25.7218C3.6415 26.0323 3.60997 26.3495 3.60997 26.6735C3.60997 29.3598 5.64088 31.5331 8.15114 31.5331C8.40974 31.5331 8.66202 31.4994 8.908 31.4521C9.51349 33.3757 11.1912 34.7729 13.1969 34.7729C15.7071 34.7729 17.7381 32.5995 17.7381 29.9132V4.53529C17.7381 2.15273 15.9279 0.215637 13.7015 0.215637ZM36.9119 20.734C36.9119 18.7294 35.8838 17.0015 34.3701 16.0701C34.6981 15.3547 34.8936 14.565 34.8936 13.7146C34.8936 11.4602 33.6006 9.52989 31.7589 8.71995C31.822 8.41623 31.8662 8.099 31.8662 7.77503C31.8662 5.39247 30.056 3.45538 27.8296 3.45538C27.7791 3.45538 27.7349 3.46888 27.6908 3.46888C27.243 1.59928 25.6788 0.215637 23.793 0.215637C21.5665 0.215637 19.7564 2.14598 19.7564 4.53529V29.9132C19.7564 32.5995 21.7873 34.7729 24.2975 34.7729C26.3032 34.7729 27.9809 33.3757 28.5864 31.4521C28.8324 31.4994 29.0847 31.5331 29.3433 31.5331C31.8535 31.5331 33.8845 29.3598 33.8845 26.6735C33.8845 26.3495 33.8529 26.0323 33.7962 25.7218C35.6252 24.9119 36.9119 22.9816 36.9119 20.734Z" fill="white"/>
</svg>
