<svg width="35" height="39" viewBox="0 0 35 39" fill="none" xmlns="http://www.w3.org/2000/svg">
<path d="M34.5881 5.88648V9.28838C34.5881 12.2863 27.0472 14.7315 17.7526 14.7315C8.4579 14.7315 0.916992 12.2863 0.916992 9.28838V5.88648C0.916992 2.88851 8.4579 0.44339 17.7526 0.44339C27.0472 0.44339 34.5881 2.88851 34.5881 5.88648ZM34.5881 13.5408V21.1951C34.5881 24.1931 27.0472 26.6382 17.7526 26.6382C8.4579 26.6382 0.916992 24.1931 0.916992 21.1951V13.5408C4.53401 16.0072 11.1542 17.1554 17.7526 17.1554C24.3509 17.1554 30.971 16.0072 34.5881 13.5408ZM34.5881 25.4475V33.1018C34.5881 36.0998 27.0472 38.5449 17.7526 38.5449C8.4579 38.5449 0.916992 36.0998 0.916992 33.1018V25.4475C4.53401 27.9139 11.1542 29.0621 17.7526 29.0621C24.3509 29.0621 30.971 27.9139 34.5881 25.4475Z" fill="white"/>
</svg>
